<svg width="45" height="44" viewBox="0 0 45 44" fill="none" xmlns="http://www.w3.org/2000/svg">
<g id="ph:file-html-thin">
<rect width="45" height="44" rx="10" fill="#1BFF07"/>
<path id="Vector" d="M27.8545 8.90039L28.0996 8.91309C28.6683 8.97197 29.2026 9.22508 29.6104 9.63281L29.7754 9.81445C30.1378 10.2562 30.3398 10.8113 30.3428 11.3877V32.4092C30.3398 32.9855 30.1378 33.5406 29.7754 33.9824L29.6104 34.1641C29.1445 34.6299 28.5133 34.8932 27.8545 34.8965H16.3877C15.8114 34.8935 15.2562 34.6924 14.8145 34.3301L14.6328 34.1641C14.167 33.6983 13.9038 33.0679 13.9004 32.4092V11.3877L13.9131 11.1426C13.972 10.574 14.2251 10.0405 14.6328 9.63281L14.8145 9.4668C15.2562 9.10443 15.8114 8.90335 16.3877 8.90039H27.8545ZM15.0557 32.4082C15.0557 32.7618 15.1963 33.1006 15.4463 33.3506L15.5439 33.4395C15.7812 33.6338 16.0793 33.7412 16.3887 33.7412H27.8535C28.2071 33.7412 28.5469 33.6006 28.7969 33.3506L28.8848 33.2529C29.0792 33.0157 29.1875 32.7176 29.1875 32.4082V31.0752H15.0557V32.4082ZM15.0557 29.9199H29.1875V13.877H15.0557V29.9199ZM16.3887 10.0557C16.0351 10.0557 15.6963 10.1963 15.4463 10.4463C15.1963 10.6963 15.0557 11.0351 15.0557 11.3887V12.7217H29.1875V11.3887C29.1875 11.0793 29.0792 10.7812 28.8848 10.5439L28.7969 10.4463C28.5469 10.1963 28.2071 10.0557 27.8535 10.0557H16.3887Z" fill="white" stroke="white" stroke-width="0.2"/>
</g>
</svg>
